<svg width="14" height="10" viewBox="0 0 14 10" fill="none" xmlns="http://www.w3.org/2000/svg">
<g id="Ai">
<path id="Vector" d="M10.9834 5.05322C11.0196 5.05583 11.0544 5.06294 11.0879 5.07275H11.0889C11.1241 5.07864 11.1624 5.08955 11.1943 5.11084C11.2142 5.12406 11.2318 5.14264 11.2441 5.16553L11.2607 5.17725L11.2695 5.18311L11.2764 5.18994C11.2899 5.20344 11.3095 5.22579 11.3193 5.25537C11.3247 5.27162 11.328 5.29325 11.3232 5.31689C11.3227 5.31933 11.3209 5.32139 11.3203 5.32373V5.33447C11.3203 5.34888 11.3177 5.36274 11.3164 5.36865C11.3146 5.37693 11.3123 5.38639 11.3096 5.396C11.3041 5.41527 11.2961 5.4402 11.2861 5.47021C11.2669 5.52791 11.247 5.59076 11.2275 5.65869L11.2266 5.66357C11.2062 5.72475 11.1792 5.78474 11.1494 5.84521L11.1504 5.84619C11.1406 5.87076 11.1329 5.8895 11.1279 5.90186C11.1264 5.90577 11.1241 5.90895 11.123 5.91162L11.124 5.9126C11.064 6.11257 10.9827 6.34076 10.8838 6.59814L10.8848 6.59912L10.6318 7.28369C10.5977 7.37151 10.5712 7.4476 10.5527 7.51221L10.5195 7.67236C10.5149 7.71844 10.5127 7.76497 10.5127 7.81104L10.5195 7.94971V7.95068L10.5498 8.11182C10.5654 8.16966 10.5868 8.23307 10.6143 8.30225L10.6602 8.38232C10.7072 8.44699 10.7568 8.46729 10.8057 8.46729H10.8154L10.8057 8.56592L10.8154 8.46826C10.8323 8.46988 10.87 8.46341 10.9346 8.42334C10.9971 8.38452 11.0739 8.32112 11.165 8.22998L11.4561 7.9165C11.5536 7.80433 11.6512 7.68436 11.749 7.55713C11.9452 7.30209 12.1264 7.04718 12.293 6.79248L12.2939 6.7915L12.6777 6.20166L12.6836 6.19189L12.7051 6.17041L12.7588 6.10303L12.7656 6.09424L12.8213 6.05322C12.843 6.04227 12.8686 6.03564 12.8965 6.03564L12.9531 6.04639C12.9715 6.05367 12.9889 6.06456 13.0039 6.07959C13.0311 6.10681 13.0453 6.14066 13.0527 6.17041H13.0518C13.0706 6.21427 13.0809 6.26029 13.083 6.30908L13.0957 6.39209C13.0985 6.42023 13.0996 6.44882 13.0996 6.47705V6.55127C13.0996 6.5725 13.0953 6.59666 13.085 6.62061V6.6333L13.0742 6.65479C13.0456 6.71204 13.0224 6.76384 13.0039 6.81006C12.982 6.86482 12.955 6.91952 12.9229 6.97314L12.9219 6.97217C12.8511 7.09338 12.761 7.22807 12.6523 7.37646L12.6533 7.37744L12.3389 7.82568C12.2295 7.97477 12.1143 8.12299 11.9951 8.27197L11.9961 8.27295C11.9407 8.34341 11.8863 8.40934 11.833 8.47021L11.6768 8.63818C11.5571 8.75783 11.4112 8.84879 11.2412 8.9126L11.2373 8.91455C11.0841 8.96562 10.9489 8.99365 10.835 8.99365C10.4487 8.99364 10.1405 8.87751 9.92871 8.63232L9.92773 8.63135C9.75357 8.42052 9.64433 8.19388 9.60547 7.95264L9.59375 7.84814C9.54252 7.19079 9.77233 6.39396 10.2656 5.46338C10.2702 5.44095 10.277 5.41936 10.2881 5.3999L10.3486 5.32373C10.4153 5.24729 10.4937 5.18672 10.583 5.14209C10.6711 5.09806 10.7611 5.06954 10.8525 5.05811L10.9834 5.05322ZM12.1611 2.7876L12.1709 2.78857L12.1543 2.88623L12.1709 2.78955C12.2024 2.79481 12.24 2.80309 12.2695 2.8208C12.2848 2.83 12.3079 2.84822 12.3213 2.87939C12.3289 2.89722 12.3311 2.91466 12.3301 2.93115C12.3321 2.93552 12.3359 2.94186 12.3418 2.95068H12.3408C12.3577 2.96907 12.3741 2.98907 12.3896 3.01123C12.4064 3.02468 12.4246 3.04138 12.4365 3.06494C12.4528 3.09747 12.452 3.13292 12.4404 3.1665L12.4434 3.16748L12.4141 3.271L12.4111 3.28076L12.3174 3.24365L12.4102 3.28076L12.2324 3.72217L12.2334 3.72314C12.1947 3.82645 12.1192 3.9112 12.0176 3.979L12.0146 3.98096C11.9725 4.0073 11.9328 4.02833 11.8965 4.04346C11.8671 4.05571 11.835 4.06392 11.8027 4.06689L11.8037 4.06787L11.5879 4.09912C11.4925 4.10972 11.4038 4.10626 11.332 4.07764L11.3242 4.07471L11.3174 4.0708C11.2526 4.03194 11.1982 3.97552 11.1523 3.90674L11.1455 3.89697L11.2354 3.85107L11.1455 3.896C11.1132 3.83127 11.0909 3.76559 11.0908 3.70361C11.0908 3.6665 11.1018 3.62608 11.1152 3.58838C11.1294 3.54862 11.1501 3.50211 11.1758 3.45068C11.224 3.35425 11.262 3.26872 11.29 3.19385L11.293 3.18604L11.3633 3.06787C11.4414 2.96196 11.5466 2.88946 11.6777 2.85303V2.85205H11.6807C11.6817 2.85176 11.6825 2.85039 11.6836 2.8501V2.85107C11.8019 2.81216 11.9206 2.78963 12.04 2.78564L12.1611 2.7876Z" fill="#222222" stroke="#222222" stroke-width="0.2"/>
<path id="Vector_2" d="M9.54492 0.644043L9.54395 0.64502C9.67921 0.645501 9.80933 0.675721 9.93359 0.737793L10.0225 0.791504C10.0767 0.830816 10.121 0.87723 10.1543 0.931152L10.1953 1.01807L10.1973 1.02295L10.2139 1.12061C10.222 1.21951 10.2055 1.3207 10.166 1.42334L10.165 1.42529C10.1161 1.54282 10.0668 1.65084 10.0176 1.74951C9.99772 1.82827 9.9736 1.9117 9.94434 1.99951C9.92404 2.08988 9.88944 2.218 9.84082 2.3833V2.38428C9.7912 2.54307 9.7218 2.75121 9.63281 3.0083C9.55362 3.26563 9.44482 3.60159 9.30664 4.01611V4.01709C9.16824 4.42241 8.99461 4.92129 8.78711 5.51416V5.51514C8.57956 6.09826 8.33251 6.79552 8.0459 7.60596C7.97854 7.79859 7.93938 8.00094 7.92969 8.21338C7.92976 8.3147 7.93672 8.39628 7.94824 8.4585C7.95415 8.49033 7.96108 8.51573 7.96875 8.53564L7.99219 8.57959L8 8.58936H7.99902C8.02636 8.64402 8.05786 8.69428 8.09375 8.73975L8.12891 8.78271C8.13891 8.79773 8.14726 8.81318 8.15137 8.82959C8.1607 8.86698 8.14984 8.90241 8.12305 8.9292L8.12012 8.93213L8.11914 8.93115C8.03813 9.0004 7.94393 9.02454 7.83984 9.00146H7.83789C7.75781 8.98143 7.6909 8.96083 7.63867 8.93994L7.63281 8.93701C7.52283 8.87415 7.43751 8.79552 7.37891 8.70068L7.3291 8.6001C7.27864 8.46886 7.25201 8.35376 7.25195 8.25635C7.25195 8.11689 7.2565 7.99602 7.2666 7.89502C7.27661 7.78517 7.29196 7.6969 7.31348 7.63232C7.343 7.51431 7.37781 7.38181 7.41699 7.23486L7.54004 6.79443C7.32531 6.64666 7.12507 6.52543 6.93848 6.43213L6.93652 6.43115C6.75233 6.32986 6.5726 6.2417 6.39746 6.1665C6.00077 6.68801 5.63392 7.1491 5.29395 7.54736H5.29297C4.94545 7.94453 4.59687 8.27723 4.24805 8.54639L4.24902 8.54736C3.90954 8.81695 3.55853 9.01639 3.19727 9.14697L3.19824 9.14795C2.84603 9.28882 2.46872 9.35889 2.06738 9.35889C1.71032 9.35884 1.43273 9.24585 1.24316 9.01416V9.01318C1.04573 8.7836 0.950195 8.45981 0.950195 8.04834C0.950218 7.77104 1.02426 7.48764 1.1709 7.19873L1.23828 7.07471C1.41979 6.74224 1.67622 6.44555 2.00684 6.18506C2.33738 5.91476 2.72308 5.6955 3.16211 5.52588L3.33301 5.46533C3.73625 5.33495 4.16967 5.27002 4.63281 5.27002C4.77323 5.27002 4.95763 5.28048 5.18555 5.30029L5.54395 5.34131C5.65862 5.35736 5.77743 5.37656 5.90039 5.39893L6.74316 4.26709L6.74414 4.26514L7.29199 3.56982C7.48977 3.30283 7.69274 3.03602 7.90039 2.76904L8.50781 1.99756L8.79492 1.65088C8.88172 1.55001 8.9656 1.4571 9.0459 1.37158V1.35889L9.05664 1.34521L9.22754 1.12061L9.20898 1.1001C9.21207 1.10313 9.21142 1.1005 9.19824 1.09814C9.18601 1.09597 9.16776 1.09505 9.14258 1.09619C9.09227 1.09849 9.02138 1.10892 8.92871 1.12842L8.92773 1.12744C8.88943 1.1378 8.84647 1.1414 8.81152 1.1167C8.77456 1.0903 8.76467 1.04585 8.76465 1.00537C8.76465 0.968796 8.76643 0.935821 8.77246 0.908691C8.77831 0.882563 8.78907 0.855951 8.80859 0.836426L8.86816 0.788574C8.93436 0.745072 9.02187 0.713699 9.12695 0.690918V0.689941C9.27028 0.649026 9.40995 0.63366 9.54492 0.644043ZM4.58789 5.87451C4.23837 5.87456 3.89318 5.93655 3.55273 6.06299L3.55371 6.06396C3.22249 6.19061 2.9256 6.36086 2.66309 6.57471L2.66211 6.57373C2.40929 6.78774 2.20116 7.03144 2.03613 7.30322V7.3042C1.87193 7.565 1.78088 7.82878 1.76172 8.09619V8.27002C1.77564 8.43075 1.83064 8.55622 1.92383 8.6499L2.02539 8.72803C2.13208 8.79519 2.25442 8.82857 2.39355 8.82861H2.39941L2.46484 8.83154C2.62255 8.82749 2.81078 8.75339 3.03223 8.6001C3.22274 8.4608 3.42208 8.29404 3.62988 8.09912L3.84082 7.89404C4.12629 7.59869 4.4173 7.27414 4.71289 6.91943L5.14258 6.39014C5.26268 6.23786 5.37761 6.08544 5.49023 5.93506C5.32629 5.90627 5.17432 5.88916 5.0332 5.88916H5.03027C4.873 5.87933 4.72511 5.87451 4.58789 5.87451ZM8.5957 3.10986L7.93555 4.04443C7.53483 4.61688 7.15651 5.14752 6.80176 5.63721C6.95966 5.69291 7.11779 5.7588 7.27539 5.8374H7.27637C7.44706 5.90927 7.60897 5.99522 7.76367 6.09131C7.83687 5.88077 7.9146 5.6578 7.99609 5.42236L8.29297 4.57666V4.57568L9.11035 2.39111C8.93256 2.63822 8.76097 2.87778 8.5957 3.10986Z" fill="#222222" stroke="#222222" stroke-width="0.1"/>
</g>
</svg>
