<svg width="36" height="36" viewBox="0 0 36 36" fill="none" xmlns="http://www.w3.org/2000/svg">
<g id="Icon/DotMenu/36x36">
<g id="Isolation_Mode">
<path id="Vector" d="M16 10.5C16 11.3284 16.6716 12 17.5 12C18.3284 12 19 11.3284 19 10.5C19 9.67157 18.3284 9 17.5 9C16.6716 9 16 9.67157 16 10.5Z" fill="#1C2126"/>
<path id="Vector_2" d="M16 17.5C16 18.3284 16.6716 19 17.5 19C18.3284 19 19 18.3284 19 17.5C19 16.6716 18.3284 16 17.5 16C16.6716 16 16 16.6716 16 17.5Z" fill="#1C2126"/>
<path id="Vector_3" d="M16 24.5C16 25.3284 16.6716 26 17.5 26C18.3284 26 19 25.3284 19 24.5C19 23.6716 18.3284 23 17.5 23C16.6716 23 16 23.6716 16 24.5Z" fill="#1C2126"/>
</g>
</g>
</svg>
