<svg xmlns="http://www.w3.org/2000/svg" width="16" height="12" viewBox="0 0 16 12" fill="none">
  <path d="M9.25361 7.69059C8.88037 7.93933 8.44707 8.07087 8 8.07087C7.55293 8.07087 7.11963 7.93933 6.74639 7.69059L0.599902 3.59239C0.565918 3.56953 0.53252 3.5458 0.5 3.52148V10.2366C0.5 11.0065 1.1249 11.6177 1.88076 11.6177H14.1189C14.8889 11.6177 15.4997 10.9928 15.4997 10.2369V3.52178C15.4672 3.54609 15.4338 3.57012 15.3995 3.59268L9.25332 7.69059H9.25361Z" fill="#222222"/>
  <path d="M1.0874 2.86113L7.23389 6.95904C7.4665 7.11432 7.73311 7.19166 8 7.19166C8.26689 7.19166 8.5335 7.11402 8.76611 6.95904L14.9126 2.86113C15.2803 2.6159 15.5 2.20603 15.5 1.76333C15.5 1.00217 14.8807 0.382812 14.1195 0.382812H1.88047C1.11934 0.382812 0.5 1.00217 0.5 1.76392C0.5 2.20573 0.719727 2.6162 1.0874 2.86113Z" fill="#222222"/>
</svg>