<svg width="20" height="20" viewBox="0 0 20 20" fill="none" xmlns="http://www.w3.org/2000/svg">
<g id="Group 715">
<g id="Layer_1">
<path id="Vector" d="M11.6618 14.4877C11.6436 14.8991 11.444 15.2863 11.1112 15.5283L10.2582 16.0788C9.67134 16.4358 8.903 16.2543 8.54605 15.6674C8.4311 15.4799 8.36455 15.2621 8.36455 15.0383V11.8015C8.3343 11.3357 8.16491 10.888 7.87451 10.5189L5.55133 8.07477C5.23068 7.74202 5.03708 7.31247 5.00078 6.85268V5.44909C4.97659 4.76545 5.51503 4.1907 6.19867 4.1665C6.20472 4.1665 6.21682 4.1665 6.22287 4.1665H14.2935C14.965 4.1665 15.5156 4.71705 15.5156 5.38859V6.73168C15.4793 7.25802 15.2615 7.75412 14.9045 8.13527" stroke="#222222" stroke-linecap="round" stroke-linejoin="round"/>
<path id="Vector_2" d="M12.7211 12.9452C13.792 12.9452 14.6571 12.0801 14.6571 11.0092C14.6571 9.93838 13.792 9.07324 12.7211 9.07324C11.6503 9.07324 10.7852 9.93838 10.7852 11.0092C10.7852 12.0801 11.6503 12.9452 12.7211 12.9452Z" stroke="#222222" stroke-linecap="round" stroke-linejoin="round"/>
<path id="Vector_3" d="M15.021 13.3086L14.416 12.7036" stroke="#222222" stroke-linecap="round" stroke-linejoin="round"/>
</g>
</g>
</svg>
