<svg xmlns="http://www.w3.org/2000/svg" width="115" height="18" viewBox="0 0 115 18" fill="none">
  <path d="M12.5116 0H0.417471H0V0.433382V3.66641V4.0998H0.417471H4.28742V16.7892V17.2226H4.70489H8.22417H8.64164V16.7892V4.0998H12.5116H12.9291V3.66641V0.433382V0H12.5116Z" fill="#B0B0B0"/>
  <path d="M28.493 16.5552L25.0865 11.0772C26.8315 10.0501 27.7833 8.2776 27.7833 6.03268C27.7833 2.30993 25.195 0 21.0245 0H14.2656V17.2226H18.6198V12.0654H20.774L23.7046 17.0189L23.8257 17.2269H28.9063L28.493 16.5595V16.5552ZM18.624 4.0998H20.8742C22.0431 4.0998 23.4333 4.4335 23.4333 6.03268C23.4333 7.63186 22.0431 7.96556 20.8742 7.96556H18.624V4.09546V4.0998Z" fill="#B0B0B0"/>
  <path d="M41.6547 13.1878H33.7019V10.5399H39.5506H39.9681V10.1065V6.93411V6.50073H39.5506H33.7019V4.03912H37.3046H37.7221V3.60574V0.433382V0H37.3046H29.7651H29.3477V0.433382V16.7892V17.2226H29.7651H41.6547H42.0722V16.7892V13.6212V13.1878H41.6547Z" fill="#B0B0B0"/>
  <path d="M55.4018 8.17365C56.2033 7.51491 56.746 6.41412 56.746 5.31333C56.746 2.03696 54.4875 0.00439453 50.8555 0.00439453H43.5957V17.227H51.4358C55.1638 17.227 57.4808 15.1598 57.4808 11.8357C57.4808 10.3492 56.6417 8.92773 55.4018 8.17365ZM50.7011 6.62214H47.9457V3.97851H50.7011C51.824 3.97851 52.3918 4.42489 52.3918 5.31333C52.3918 6.20176 51.824 6.62647 50.7011 6.62647V6.62214ZM47.9499 10.4186H51.2813C52.1246 10.4186 53.1266 10.6656 53.1266 11.8314C53.1266 12.9972 52.1246 13.2442 51.2813 13.2442H47.9499V10.4186Z" fill="#B0B0B0"/>
  <path d="M73.1285 0H69.1917V9.54741C69.1917 11.9657 67.9351 13.4695 65.9146 13.4695C63.894 13.4695 62.6374 11.9657 62.6374 9.54741V0H58.2832V9.54741C58.2832 14.3796 61.3474 17.6257 65.9104 17.6257C70.4733 17.6257 73.5376 14.3796 73.5376 9.54741V0H73.1201H73.1285Z" fill="#B0B0B0"/>
  <path d="M114.293 0H110.307L110.19 0.23836L106.792 7.20281L103.377 0.23836L103.26 0H98.2793L98.6174 0.641406L104.462 11.762V17.2226H108.816V11.762L114.661 0.641406L114.999 0H114.298L114.293 0Z" fill="#B0B0B0"/>
  <path d="M81.0348 0H74.5098V17.2226H81.0348C86.3367 17.2226 89.9019 13.7642 89.9019 8.61997C89.9019 3.47572 86.3409 0 81.0348 0ZM81.0933 4.0998C83.9237 4.0998 85.5477 5.74665 85.5477 8.62431C85.5477 11.502 83.9237 13.1271 81.0933 13.1271H78.864V4.0998H81.0933Z" fill="#B0B0B0"/>
  <path d="M92.0343 0.00467028H86.4004C88.1097 0.910706 89.4236 2.34448 90.2272 4.16589H92.0895C94.7428 4.16589 96.265 5.80049 96.265 8.65404C96.265 11.5076 94.7428 13.1188 92.0895 13.1188H90.2314C89.4278 14.9449 88.1182 16.3787 86.4046 17.2801H92.0343C97.0601 17.2801 100.44 13.81 100.44 8.64937C100.44 3.4887 97.0644 0 92.0343 0V0.00467028Z" fill="#E0E0E0"/>
</svg>