<svg
  xmlns="http://www.w3.org/2000/svg"
  width="60"
  height="61"
  viewBox="0 0 60 61"
  fill="none"
>
  <path
    d="M35.4174 52.625C43.1955 52.625 49.5 46.6488 49.5 39.2775C49.5 33.7555 45.9622 29.0171 40.9164 26.9848C40.7811 26.931 40.7617 26.748 40.8842 26.6684L41.2407 26.4402C43.8356 24.7674 45.5562 21.8482 45.5562 18.5264C45.5562 13.3338 39.7414 9.125 34.5603 9.125H21.0985C17.9323 9.125 13.75 10.0981 12.1261 15.1723L10.8222 20.6125C10.7556 20.8923 10.9661 21.1593 11.254 21.1593H21.7601C21.9018 21.1593 21.9835 21.3208 21.9019 21.4349L18.697 25.8847C18.3168 26.4122 17.9237 26.9289 17.5327 27.4477C17.3287 27.719 17.1289 27.9945 16.9227 28.2615C16.6606 28.5973 16.405 28.9353 16.1515 29.2776C14.7488 31.1764 13.4793 33.185 12.4805 35.3292C11.5633 37.3033 10.5 39.6994 10.5 41.9082C10.5 43.2387 10.7492 44.5713 11.2346 45.8092C12.7404 49.6584 16.463 52.3473 20.5572 52.6013C20.5658 52.5518 23.1907 38.1257 25.734 34.7243C26.707 33.3507 28.3052 32.453 30.1138 32.453C33.0803 32.453 35.484 34.862 35.484 37.8351C35.484 38.4982 35.3637 39.1311 35.1467 39.7167C35.1467 39.7167 35.1446 39.7231 35.1403 39.736C34.9856 40.1472 34.7816 40.5347 34.5345 40.8921C33.4111 42.7952 30.4747 46.9243 23.6461 52.6035"
    fill="#5938DB"
  />
</svg>
