<svg width="120" height="24" viewBox="0 0 120 24" fill="none" xmlns="http://www.w3.org/2000/svg">
<g id="logo">
<g id="Group 710">
<path id="Vector" d="M13.0329 3H0.434864H0V3.45144V6.81917V7.27061H0.434864H4.46605V20.4887V20.9402H4.90091H8.56682H9.00168V20.4887V7.27061H13.0329H13.4677V6.81917V3.45144V3H13.0329Z" fill="#5938DB"/>
<path id="Vector_2" d="M29.6795 20.2449L26.131 14.5388C27.9488 13.4689 28.9403 11.6225 28.9403 9.28402C28.9403 5.40617 26.2441 3 21.8998 3H14.8594V20.9402H19.395V15.568H21.6389L24.6916 20.728L24.8178 20.9447H30.11L29.6795 20.2495V20.2449ZM19.3994 7.27061H21.7433C22.9609 7.27061 24.409 7.61821 24.409 9.28402C24.409 10.9498 22.9609 11.2974 21.7433 11.2974H19.3994V7.26609V7.27061Z" fill="#5938DB"/>
<path id="Vector_3" d="M43.392 16.7373H35.1079V13.979H41.2003H41.6352V13.5275V10.223V9.77158H41.2003H35.1079V7.20741H38.8608H39.2956V6.75597V3.45144V3H38.8608H31.0071H30.5723V3.45144V20.4887V20.9402H31.0071H43.392H43.8269V20.4887V17.1887V16.7373H43.392Z" fill="#5938DB"/>
<path id="Vector_4" d="M57.7101 11.514C58.545 10.8278 59.1103 9.68117 59.1103 8.53452C59.1103 5.12164 56.7577 3.00439 52.9744 3.00439H45.4121V20.9446H53.5789C57.4622 20.9446 59.8757 18.7912 59.8757 15.3287C59.8757 13.7802 59.0016 12.2995 57.7101 11.514ZM52.8135 9.89786H49.9434V7.14409H52.8135C53.9833 7.14409 54.5747 7.60907 54.5747 8.53452C54.5747 9.45996 53.9833 9.90237 52.8135 9.90237V9.89786ZM49.9477 13.8525H53.418C54.2964 13.8525 55.3401 14.1098 55.3401 15.3241C55.3401 16.5385 54.2964 16.7958 53.418 16.7958H49.9477V13.8525Z" fill="#5938DB"/>
<path id="Vector_5" d="M76.1766 3H72.0759V12.9452C72.0759 15.4642 70.7669 17.0307 68.6622 17.0307C66.5575 17.0307 65.2485 15.4642 65.2485 12.9452V3H60.7129V12.9452C60.7129 17.9787 63.9048 21.36 68.6579 21.36C73.4109 21.36 76.6028 17.9787 76.6028 12.9452V3H76.1679H76.1766Z" fill="#5938DB"/>
<path id="Vector_6" d="M119.056 3H114.903L114.782 3.24829L111.242 10.5029L107.685 3.24829L107.563 3H102.375L102.727 3.66813L108.815 15.252V20.9402H113.351V15.252L119.439 3.66813L119.791 3H119.061H119.056Z" fill="#5938DB"/>
<path id="Vector_7" d="M84.4122 3H77.6152V20.9402H84.4122C89.9349 20.9402 93.6487 17.3377 93.6487 11.9791C93.6487 6.62054 89.9393 3 84.4122 3ZM84.473 7.27061C87.4214 7.27061 89.113 8.98607 89.113 11.9836C89.113 14.9812 87.4214 16.6741 84.473 16.6741H82.1509V7.27061H84.473Z" fill="#5938DB"/>
<path id="Vector_8" d="M95.8686 3.00486H90C91.7805 3.94865 93.1491 5.44216 93.9862 7.33946H95.9262C98.69 7.33946 100.276 9.04216 100.276 12.0146C100.276 14.987 98.69 16.6654 95.9262 16.6654H93.9906C93.1535 18.5676 91.7894 20.0611 90.0044 21H95.8686C101.104 21 104.625 17.3854 104.625 12.0097C104.625 6.63405 101.108 3 95.8686 3V3.00486Z" fill="#0085FF"/>
</g>
</g>
</svg>
