<svg width="36" height="36" viewBox="0 0 36 36" fill="none" xmlns="http://www.w3.org/2000/svg">
<g id="Group 708">
<path id="Vector" d="M21.2493 31.0502C25.9161 31.0502 29.6988 27.4644 29.6988 23.0417C29.6988 19.7285 27.5761 16.8855 24.5487 15.6661C24.4675 15.6338 24.4559 15.524 24.5293 15.4762L24.7433 15.3393C26.3002 14.3357 27.3325 12.5841 27.3325 10.591C27.3325 7.47546 23.8437 4.9502 20.735 4.9502H12.6579C10.7582 4.9502 8.24883 5.53404 7.27447 8.57857L6.49215 11.8427C6.4522 12.0106 6.5785 12.1708 6.75121 12.1708H13.0549C13.1399 12.1708 13.1889 12.2677 13.1399 12.3361L11.217 15.006C10.9889 15.3225 10.753 15.6325 10.5185 15.9438C10.396 16.1066 10.2762 16.2719 10.1524 16.4321C9.99519 16.6336 9.84182 16.8364 9.68974 17.0418C8.84813 18.181 8.08644 19.3862 7.48713 20.6727C6.9368 21.8572 6.29883 23.2949 6.29883 24.6201C6.29883 25.4184 6.44833 26.218 6.73961 26.9607C7.64308 29.2702 9.87662 30.8836 12.3331 31.036C12.3383 31.0063 13.9132 22.3506 15.4392 20.3097C16.0231 19.4856 16.9819 18.947 18.0671 18.947C19.847 18.947 21.2892 20.3924 21.2892 22.1762C21.2892 22.5741 21.217 22.9538 21.0869 23.3052C21.0869 23.3052 21.0856 23.3091 21.083 23.3168C20.9902 23.5635 20.8678 23.796 20.7195 24.0105C20.0455 25.1523 18.2837 27.6298 14.1865 31.0373" fill="#5938DB"/>
</g>
</svg>
