<svg width="100" height="100" viewBox="0 0 100 100" fill="none" xmlns="http://www.w3.org/2000/svg">
<g id="Group 716">
<g id="Layer_1">
<path id="Vector" d="M51.4815 33.3546H59.7786C63.1991 33.337 65.9824 36.1027 65.9999 39.5174C66.0058 41.3242 65.2281 43.0374 63.8657 44.2185L39.1324 65.8646C36.5713 68.1274 36.3199 72.0392 38.5827 74.6061C39.7463 75.9275 41.4244 76.6876 43.1844 76.6993H51.4815" stroke="#CCCCCC" stroke-width="1.65" stroke-linecap="round" stroke-linejoin="round" stroke-dasharray="4 4"/>
<path id="Vector_2" d="M46.5028 29.8716C46.5028 33.9178 39.4863 41.8407 39.4863 41.8407C39.4863 41.8407 32.4697 33.912 32.4697 29.8716C32.4697 25.8313 35.6155 23.1299 39.4863 23.1299C43.3571 23.1299 46.5028 25.8254 46.5028 29.8716Z" stroke="#CCCCCC" stroke-width="1.65" stroke-linecap="round" stroke-linejoin="round" stroke-dasharray="4 4"/>
<path id="Vector_3" d="M39.4863 31.9004C40.778 31.9004 41.8252 30.8532 41.8252 29.5615C41.8252 28.2698 40.778 27.2227 39.4863 27.2227C38.1946 27.2227 37.1475 28.2698 37.1475 29.5615C37.1475 30.8532 38.1946 31.9004 39.4863 31.9004Z" stroke="#CCCCCC" stroke-width="1.65" stroke-linecap="round" stroke-linejoin="round" stroke-dasharray="4 4"/>
</g>
</g>
</svg>
