<svg width="39" height="43" viewBox="0 0 39 43" fill="none" xmlns="http://www.w3.org/2000/svg">
<path id="Vector" d="M24.6496 42.0882C32.344 42.0882 38.5808 36.3059 38.5808 29.1738C38.5808 23.8311 35.081 19.2465 30.0895 17.2802C29.9556 17.2281 29.9365 17.0511 30.0576 16.974L30.4103 16.7532C32.9773 15.1347 34.6794 12.3103 34.6794 9.09626C34.6794 4.07217 28.9271 0 23.8017 0H10.4846C7.35237 0 3.21507 0.941495 1.6086 5.85102L0.318744 11.1146C0.252871 11.3854 0.461117 11.6437 0.745862 11.6437H11.1391C11.2793 11.6437 11.36 11.7999 11.2793 11.9103L8.10886 16.2158C7.73274 16.7261 7.34387 17.226 6.95713 17.728C6.75526 17.9905 6.55763 18.2571 6.35364 18.5154C6.09439 18.8403 5.84152 19.1673 5.59078 19.4985C4.20318 21.3357 2.94732 23.2791 1.95922 25.3537C1.05186 27.2638 0 29.5821 0 31.7192C0 33.0065 0.246496 34.2958 0.726737 35.4935C2.21634 39.2178 5.89889 41.8195 9.94907 42.0652C9.95757 42.0173 12.5543 28.0595 15.0702 24.7684C16.0328 23.4395 17.6138 22.5709 19.403 22.5709C22.3376 22.5709 24.7154 24.9017 24.7154 27.7783C24.7154 28.4198 24.5964 29.0322 24.3818 29.5988C24.3818 29.5988 24.3797 29.605 24.3754 29.6175C24.2224 30.0154 24.0206 30.3903 23.7762 30.7361C22.6648 32.5774 19.76 36.5725 13.0048 42.0673" fill="white"/>
</svg>
